# xmcd
#
# Track frame offsets:
#	150
#	18685
#	36287
#	52141
#	70080
#	84785
#	103205
#	121841
#	140185
#	161118
#	175946
#	192189
#	210227
#
# Disc length: 3051 seconds
#
# Revision: 1
# Processed by: cddbd v1.5.2PL0 Copyright (c) Steve Scherf et al.
# Submitted via: audiograbber 1.83.01
#
DISCID=b80be90d
DTITLE=BEGHINI SHOW - C'é la tua Canzone
DYEAR=1900
DGENRE=LISCIO
TTITLE0=MA VOGLIO TE (Cumbia Dance)
TTITLE1=BIGLIETTO SOLO ANDATA (Moderato)
TTITLE2=C'E' LA TUA CANZONE (Lento)
TTITLE3=L'ISOLA DEI VIP (Hully Gully)
TTITLE4=CANTO E FISCHIO (Tarantella)
TTITLE5=GRANDE LUCIANO (Moderato)
TTITLE6=IO LO GIURO (Terzinato)
TTITLE7=SEI TU (Moderato)
TTITLE8=SENZA DI TE (Valzer Lento)
TTITLE9=PASHA' (Menehito)
TTITLE10=IL PAESE DEI BALOCCHI (Mambo)
TTITLE11=IL MONDO CHE VEDRAI (Moderato)
TTITLE12=VOLA CON ME (Moderato)
EXTD=
EXTT0=
EXTT1=
EXTT2=
EXTT3=
EXTT4=
EXTT5=
EXTT6=
EXTT7=
EXTT8=
EXTT9=
EXTT10=
EXTT11=
EXTT12=
PLAYORDER=
